<svg height="70" viewBox="0 0 163 70" width="163" xmlns="http://www.w3.org/2000/svg"><path d="m150.852524 66.8683043c-.600071.8175911-1.234463 1.3478605-1.90207 1.5908082-.666499.2429477-1.689498.3649762-3.06789.3649762h-1.702785c-1.290927 0-2.133462-.1131537-2.52539-.3405705-.390822-.2251981-.629964-.5435816-.718536-.9529318-.087464-.4082409-.131749-1.4244057-.131749-3.0496038v-11.7679874c0-1.8670364.057571-3.0496038.172714-3.547702.117357-.4969889.346535-.8364501.686428-1.0183835.343214-.1830428 1.063963-.2740095 2.166677-.2740095h.994213v-.763233h-10.770277v.763233h.497107c1.135927 0 1.872177.0998415 2.208748.2984152.334357.1985737.555785.5568938.659856 1.0782884.105179.5191759.159429 1.6729002.159429 3.4633914v11.022504c0 1.8792393-.05425 3.0751189-.159429 3.588748-.104071.5136292-.339892.8919176-.70857 1.1348653-.370893.2429477-1.035178.3649762-1.993963.3649762h-.663178v.7621237h19.057235l.164964-6.6128368h-.777214c-.495999 1.7793978-1.045142 3.0773376-1.64632 3.8949287zm-34.960222-6.3155309 3.952497-9.5792393 3.970211 9.5792393zm14.042989 6.4486529-1.024107-2.3540412-7.495351-17.851664h-.644357l-6.517744 15.5974643c-.473857 1.1160064-.738464 1.7572108-.792714 1.922504-.685321 1.7572108-1.269892 2.907607-1.753713 3.455626-.486035.5469096-1.224499.8985737-2.216498 1.0527733v.7621237h6.666102v-.7621237c-.716321 0-1.305321-.1752773-1.76257-.5213946-.458357-.3494453-.686428-.8597464-.686428-1.5342313 0-.6290016.429571-1.9779715 1.28982-4.0435817l.580142-1.4266244h8.518351l1.720498 4.1600634c.508179 1.2047544.760607 1.9291601.760607 2.1721078 0 .4759112-.190428.7920761-.569071.9529318-.380857.1597465-1.112678.240729-2.193248.240729v.7621237h8.818386v-.7621237c-.784964-.0787638-1.371749-.2684627-1.763678-.5724247-.389713-.3028526-.701928-.7199683-.934427-1.2502377zm-58.4094901-2.1643423c-.8458565 1.5752773-1.8954271 2.6302694-3.1531404 3.1660856-1.2577133.5358161-2.861962.8042789-4.8138534.8042789-1.334106 0-2.2087482-.129794-2.620605-.3904913-.4140711-.2584786-.6620709-.7088748-.7451066-1.3489699-.0830356-.6412044-.1239999-2.0722662-.1239999-4.2931854v-15.0183835c.8602493-.0532488 1.7083201-.0832013 2.5475337-.0832013 1.7415344 0 3.1697475.1697306 4.2835324.5058637 1.1148919.3372425 2.1301411.9729002 3.0446404 1.9058637.9144993.9340729 1.6175345 2.1488114 2.1091055 3.6386688.4915711 1.4920761.7351423 3.1882726.7351423 5.0885896 0 2.4416798-.420714 4.4507131-1.263249 6.0248811zm-38.9448265-18.0968304c-2.8774621 0-5.0363889-.9041205-6.4756735-2.7179081-1.4392846-1.8126783-2.1589269-4.5239303-2.1589269-8.1381934 0-3.5576862.7196423-6.2456418 2.1589269-8.0627575s3.5096401-2.7256735 6.2121737-2.7256735c2.7457121 0 4.8415319.9307448 6.285245 2.7911252 1.4448203 1.8637084 2.1666769 4.5394611 2.1666769 8.0316957 0 3.5909667-.732928 6.2911252-2.1998911 8.1038035-1.4669632 1.8137876-3.4631402 2.7179081-5.988531 2.7179081zm-25.21183734-11.1866878c.44064251-.022187.86024932-.0332805 1.2577133-.0332805 2.51431944 0 4.27135374.4393027 5.26888874 1.317908.9975349.8786054 1.4968559 2.2464343 1.4968559 4.1023772 0 1.8126783-.4417496 3.170523-1.3241418 4.0768621-.8823921.9063392-2.2054268 1.3600634-3.9702111 1.3600634-.99199926 0-1.65628445-.1486529-1.99285562-.4481775-.33657116-.2984152-.54360671-.7354992-.61999951-1.3090332-.0763928-.5746435-.11624991-1.9280508-.11624991-4.0613313zm0-10.2437401c.45282107-.0332805.89346358-.0499208 1.32303467-.0499208 1.65407017 0 2.82321207.174168 3.50742577.522504.6831067.3483359 1.1968205.8442155 1.5378203 1.4832012.3421068.6412045.5137138 1.5475436.5137138 2.7190175 0 1.6795562-.4362139 2.8942947-1.3075346 3.6464342-.8713208.7510301-2.4977124 1.1270998-4.87917477 1.1270998-.18821414 0-.41960681-.0055467-.69528517-.0177496zm63.48573574 23.0933439c-1.8633199-1.0172742-4.4617822-1.5253566-7.7920653-1.5253566-.9133921 0-2.5652479.0576862-4.9444961.1697306.6321781-.3727417 1.1979277-.8175911 1.6939273-1.2824089 1.2798561-1.2047544 1.9175699-2.7689382 1.9175699-4.6914421 0-1.2158479-.2634998-2.2874802-.7938208-3.2160064-.5281067-.9285261-1.232249-1.6551505-2.1102126-2.1798732-.8746422-.5247227-2.2784983-1.2180666-4.2093539-2.0800317-2.0172127-.9063391-3.4133187-1.7239303-4.1849967-2.4538827-.7827494-.7177496-1.1746776-1.596355-1.1746776-2.6358162 0-.8608558.3133212-1.6529318.9344278-2.3784469.6244281-.7232964 1.6020345-1.0849445 2.9372477-1.0849445 1.4005346 0 2.6327836.4925515 3.6978542 1.4743264 1.0639635.9862124 1.8046415 2.3329636 2.2242483 4.044691h.7273923v-5.8828843h-.7273923c-.0664285.7066561-.3520712 1.3645008-.8591422 1.9713154-.8834993-.9729002-1.7437486-1.6129953-2.580748-1.9213947-.8392136-.310618-1.7326772-.4659271-2.6803907-.4659271-1.6983558 0-3.1022119.5347069-4.210461 1.5996831-1.1082491 1.0671949-1.6629273 2.4006339-1.6629273 4.003645 0 1.0494453.256857 2.0389857.7694637 2.9664025.5126068.9285262 1.2278205 1.6828843 2.1423198 2.2630745.9156064.5801902 2.2729625 1.2568938 4.0698539 2.030111 2.0172127.8619651 3.4066759 1.6695721 4.1683896 2.4206022.7606065.7632329 1.1425705 1.70729 1.1425705 2.8343898 0 1.1171157-.4351068 2.1244057-1.2986775 3.0251981-.8668922.8996831-2.0880698 1.3500793-3.6657472 1.3500793-3.5063186 0-5.7283526-2.3529319-6.6649947-7.0610143h-.8270351l-.0431785 7.4126783h-10.6595631c1.9463557-.5069731 3.6203543-1.4299525 5.0186747-2.7722662 2.2430696-2.1532489 3.3657116-4.9709985 3.3657116-8.4532489 0-3.5898573-1.1724634-6.4253565-3.5151758-8.5031695-2.3438196-2.0767037-5.263353-3.1150555-8.7597074-3.1150555-3.462033 0-6.3505664 1.0505547-8.6667075 3.1494453-2.3172481 2.1-3.4753187 4.8844691-3.4753187 8.3545167 0 3.5576862 1.1414634 6.414263 3.4243902 8.5675119 1.4215703 1.3423137 3.0933547 2.2652931 5.0109246 2.7722662h-5.3674243l-8.1729222 18.5982567-8.20060065-18.551664h2.36928385c2.1954626 0 3.945854-.1575277 5.2522816-.4725832 1.3075347-.3150555 2.3792481-.9828843 3.2173546-2.0057052.8392136-1.0217116 1.2577133-2.2386688 1.2577133-3.6541997 0-1.6251981-.6177852-2.9763867-1.8522485-4.0613312-1.2355705-1.0827259-3.126569-1.7183835-5.6741027-1.9058637 2.1168555-.3095088 3.7022828-.9063392 4.7551748-1.7904913 1.052892-.8841522 1.5798916-2.055626 1.5798916-3.5144216 0-3.5354992-3.0656761-5.3038035-9.19592132-5.3038035l-4.20271098.1331221-3.68788996.0987321v.763233h.42846395c1.13592768 0 1.8721771.0987322 2.20874826.2984152.33546403.1985737.55689242.5646593.66207091 1.0938194.10407135.5302694.15610702 1.70729.15610702 3.5299524v10.9393027c0 1.8792393-.04871424 3.0762282-.14835702 3.588748-.09964278.5147385-.33435688.893027-.70303516 1.1359747-.36978543.244057-1.03296348.3649762-1.99285558.3649762h-.86024932v.7621236h.00221428v.7166403h.18821414c1.13482053 0 1.87106996.0998415 2.20764112.2984152.3376783.199683.55689242.5580031.66317805 1.0782884.1029642.5191759.15610702 1.6729002.15610702 3.4622821v9.781141c0 1.855943-.06532138 3.126149-.19817842 3.8117275-.13285704.6844691-.49932103 1.2624405-1.10049913 1.732805-.6011781.4692552-1.3817132.7310618-2.34049816.7865293v.7610143h8.02235083v-.7610143c-1.03517775-.066561-1.84117712-.3450079-2.41356953-.8375594-.57460669-.4914421-.91671356-1.0627575-1.02632062-1.7150554-.1107142-.652298-.1660713-1.87813-.1660713-3.6797148v-13.1613312l8.94902872 20.1546751h.7783208l8.8826001-20.1546751v14.3050713c0 1.8792393-.0520356 3.0740095-.1572141 3.588748-.1040714.5136292-.3409998.8919176-.7107852 1.1348653s-1.0285349.3649762-1.9762484.3649762h-.794928v.7610143h10.7193487v-.7610143h-.9931063c-1.0141421 0-1.7005701-.1320126-2.058177-.3982567-.3598211-.2651347-.5823567-.6711569-.670928-1.2180665-.0885714-.5469097-.1317499-1.703962-.1317499-3.4722663v-11.0236133c0-1.8659271.0586785-3.0496038.1727141-3.5454834.1173571-.4980982.3454283-.8375594.6875352-1.0194928.3409997-.1830428 1.0639635-.2740095 2.1666769-.2740095h.827035l3.1963189-.0055468v.0055468c1.0827849 0 1.7891415.1087163 2.1257127.3228209.3376783.2152139.5513567.5946117.6454637 1.1348653.0941071.5424722.1406071 1.6684627.1406071 3.3812995v11.0236133c0 1.8792393-.0442857 3.0473851-.1317499 3.5055468-.0885714.4581616-.2956069.8375594-.6211067 1.1337559-.3254997.3006339-1.0440349.4492868-2.1589269.4492868h-.4627853v.7610143h18.5767354l.4804996-6.9933439h-.7949279c-.3963569 1.6573693-.9388564 2.9586371-1.6274988 3.9038035-.6897494.9451664-1.4160346 1.5686212-2.1766411 1.8725832s-1.7315701.4559429-2.9117834.4559429h-1.6706773c-1.4990702 0-2.4191052-.2340729-2.7623192-.7044374-.3421069-.4692551-.5126068-2.0356576-.5126068-4.6992076v-5.3204437h2.4656052c.958785 0 1.6385702.0621236 2.0415698.1908082.4041069.126466.7085709.4026942.9189279.8286847.2092498.4237718.3144283 1.2613312.3144283 2.5104596h.7772137v-7.6900159h-.7772137c0 1.1049128-.0697499 1.8481775-.2070355 2.2286846-.1383928.3816165-.4251426.6667195-.8591422.8541997-.4373211.1874802-1.2012491.2806656-2.2928911.2806656h-2.3814624v-9.4305863h3.111069c1.5654988 0 2.7003193.0865293 3.4066759.2562599.7063566.1719493 1.3141775.5868462 1.8278914 1.2435816.5126068.6567353.9466064 1.7716323 1.2986776 3.3391442h.7772136l-.5281067-5.6022187h-1.6507487c.179357-.9274168.4860353-1.8603804.8458565-2.3740095 1.4392846 1.6551505 3.1619975 2.9508716 5.2190673 3.2481775 0 0 .9443921.0599049.9698564.0599049.6277495.0543582 1.0694991.1664025 1.3064275.3017433.3354641.1941363.5568925.5524564.6609638 1.077179.1040713.5247227.1572142 1.6828844.1572142 3.4722663v10.8394612c0 1.8792393-.0531429 3.0751188-.1572142 3.588748-.1040713.5147385-.3409997.8930269-.709678 1.137084-.3697854.2418383-1.0351778.3649762-1.9950699.3649762h-.9266778v.7610143h9.942135c1.8644271 0 3.3092474-.0576863 4.335568-.174168 1.0241064-.1153725 2.1079984-.4093503 3.2494618-.8786054 1.1414634-.4692552 2.1456411-1.1548336 3.010319-2.0545167.8657851-.9019017 1.5466774-2.0334389 2.0437841-3.3990491.4959996-1.3645008.7428923-2.869889.7428923-4.5150555 0-2.277496-.4539282-4.2854199-1.3639989-6.0270998-.9078564-1.7383518-2.2973196-3.1183835-4.1595325-4.1345483zm42.9294302-3.6164818c-.105178.3638669-.438428.703328-1.000856 1.0194929-.562428.3139461-1.378392.5103011-2.447891.5879556v.7610143h8.369993v-.7610143c-1.191284 0-2.083641-.1708399-2.679283-.5147385-.595643-.3427892-.956571-.7166403-1.086106-1.1282092-.124-.4060222-.188215-1.2580032-.188215-2.5503962v-15.5974643l15.864238 21.066561h.711892v-18.5971474c0-.962916.075286-1.6429477.222536-2.0467512.148357-.4038035.497107-.7488114 1.044035-1.0361331.544714-.2873217 1.292034-.4692552 2.240855-.5469097v-.7621236h-8.138601v.7621236c.881285 0 1.636356.1164818 2.265213.3472266.628856.2329636 1.044035.548019 1.247749.9451664.205928.3982568.307785 1.0949287.307785 2.0889065v13.4431062l-13.283489-17.5865293h-6.616281v.7621236c1.201249 0 1.976249.0820919 2.323891.2484945.346536.1652931.600071.5413629.760607 1.1259904.158321.5868463.239143 1.7416799.239143 3.4656102v11.9177496c0 1.3578447-.053143 2.2209192-.157215 2.5858954zm-37.3870774 1.2103011c-.3642497-.2662441-.5878924-.6755943-.6698209-1.2280507-.0841428-.5524564-.125107-1.70729-.125107-3.4645008v-15.862599h3.6070686c1.224499 0 2.0891769.0765451 2.5962479.2240887.5070711.1497623.982035.5524564 1.4237846 1.2103011.4406425.6578447.7882851 1.7272583 1.0418206 3.2082409h.7107852l-.1151428-5.403645h-21.7697329l-.1162499 5.403645h.7606066c.2324998-1.4255151.5646424-2.4860539 1.0008563-3.1827258.436214-.6955626.9023208-1.1126783 1.3983204-1.2513471s1.4669631-.2085578 2.9117834-.2085578h3.3247474v15.862599c0 1.87813-.0520357 3.0762282-.1572142 3.588748-.1051785.5136292-.3421069.8919176-.7107851 1.137084-.3697855.2429477-1.0340707.3627575-1.9939628.3627575l.02325.763233h8.7353503c.5325353.0465927.9233564.1286846 1.1403562.2540412.3398926.1985737.561321.5580032.6598567 1.0771791.1007499.5180666.1494641 1.6729001.1494641 3.4633914v11.7846276c0 1.8792393-.0487142 3.0751189-.1494641 3.588748-.0985357.5136292-.3321426.8919176-.7019281 1.1348653-.3697854.2418384-1.0329634.3649762-1.9928555.3649762h-.6620709v.7621237h10.2554562v-.7621237h-.6609638c-1.0152492 0-1.7005701-.133122-2.0592841-.3982567s-.5801424-.6711569-.6609638-1.2180665c-.0841427-.5469097-.125107-1.703962-.125107-3.4722663v-11.7846276c0-1.8670364.0575714-3.0496038.1738213-3.547702.1151428-.4958796.3454283-.8364501.686428-1.0183835.3421069-.1830428 1.0650706-.2740096 2.167784-.2740096h.4782854v-.7621236h-9.3730641c-.545821-.0576862-.9543564-.1708399-1.2023562-.351664zm85.7082894-18.9288431c-.029892.155309-.101857.2939778-.212571.4160063-.110714.1231379-.274571.2196514-.492678.2917592-.219214.069889-.408535.088748-.570178.0543581-.161643-.0354992-.300036-.1064976-.415178-.2141046-.115143-.1064976-.213679-.2396196-.2945-.3971474-.080822-.1597464-.149464-.3217115-.203714-.4936608l-.370893-1.1470682 2.073677-.6700475.370893 1.1470681c.05425.1686213.094107.3427893.121785.5180666.025464.1763867.02325.3405705-.006643.4947702zm.726285-1.0139461-.73182-2.2697306-6.436924 2.0866878.283428.874168 2.835391-.918542.314428.9751188-2.307283 2.5570523.353178 1.0938194 2.346034-2.7822504c.102964.2351822.238035.4337559.407428.5968304.1705.1641838.355393.2884311.553571.373851.199285.0865294.405214.1353408.618892.1475436.214786.0110935.425143-.0177496.632178-.0843106.199286-.0654517.397464-.1630745.593428-.2917591.194857-.1309033.354286-.3017433.476072-.5125198.123999-.2107766.198178-.4692552.223642-.7709984.026572-.3050714-.027678-.6633915-.161643-1.0749604zm-8.992207-10.7007924 1.597606-1.2347068 2.105784 2.736767.682-.5269414-2.670427-3.4633914-5.354138 4.1434231 2.774497 3.5998416.680893-.5280507-2.213177-2.8721078 1.71607-1.3267829 1.961856 2.5448494.681999-.5269413zm-9.521421-3.433439 3.237283-4.94881141 1.822356 1.19698891.471643-.72107765-4.410854-2.89762283-.471643.72107766 1.821249 1.19698891-3.237283 4.94881141zm-11.330491-10.40792393.017714.0044374 2.494391 6.24786054 1.140357.24627576 1.439284-6.62171157-.895678-.19524564-1.183535 5.44469096-.018821-.0044374-2.457855-6.24009509-1.176892-.2562599-1.440392 6.62171157.897892.19635499zm-7.970315 5.16846276-.125107-.85198098-3.584926.52916006-.315535-2.14881141 3.174176-.4703645-.124-.85419968-3.175283.47147385-.295607-1.99904913 3.412211-.50475436-.125107-.85198098-4.320068.64009509.988678 6.70602218zm-16.933737 1.98129953c.191536.38272583.4495.7266244.779428 1.02725832.329929.30285261.704143.53470682 1.122642.69556262.419607.1608558.866892.2362916 1.342963.2263074.474964-.0099841.952143-.1353407 1.431535-.3760697.347643-.174168.631071-.37274169.850285-.59350238.221428-.2207607.396357-.43597465.527-.64896989.129535-.2096672.220321-.40380349.276785-.57686213.055357-.17527733.089679-.30507131.105179-.39049128l-.954357-.17527734c-.05425.34833598-.174928.66117274-.366464.9340729-.191535.27511886-.460571.49809826-.807106.67226625-.353179.17749603-.700821.27290015-1.042928.28732171-.341.0155309-.663178-.03660856-.966535-.15752774-.300035-.11980982-.574607-.29508716-.819285-.53026941-.246893-.23296355-.448393-.50919176-.608928-.82868463-.169393-.34389857-.277893-.6911252-.31775-1.04611727-.040964-.35499208-.019928-.69223455.066429-1.01283677.084142-.32171157.232499-.61458003.445071-.88304279.211464-.26624405.488249-.4858954.830356-.65673534.280107-.13866878.579035-.21632329.902321-.2274168.322178-.0110935.623321.05103011.906749.18748019l.421821-.86529318c-.405214-.19746434-.838106-.27511886-1.298677-.23740095-.461678.03882726-.892357.15863708-1.290928.35942947-.468321.2340729-.855821.52805072-1.161392.88193344-.307785.35499208-.529214.74548336-.660964 1.1725832-.131749.42709985-.173821.87638669-.131749 1.35007924.045392.47591126.183785.94516641.418499 1.41220286zm-3.985711 19.22614894c1.443713 1.8614897 2.166677 4.5383518 2.166677 8.0305864 0 3.5909667-.734035 6.2911252-2.200998 8.1049128-1.327464 1.6396197-3.092248 2.5304279-5.2854961 2.685737-.0863571-.0022187-.1693928-.0144216-.256857-.0144216-.2169998 0-.4229282.0277338-.6366066.0388273-2.7800335-.041046-4.8780676-.9396197-6.2852451-2.7101427-1.4381774-1.8137876-2.1589268-4.5250396-2.1589268-8.1381933 0-3.5576862.7207494-6.2456418 2.1589268-8.0638669 1.4392846-1.8171157 3.5096401-2.7256735 6.2121737-2.7256735.9964278 0 1.9042842.1264659 2.7302121.3716323-1.4736059 2.9797147-2.448998 6.2567353-2.815462 9.7267829-.0221429.2063391.1273213.39271.3321426.4104596.2048213.022187.3908211-.1231379.4107497-.329477.3598211-3.4123614 1.3274632-6.6283677 2.7833547-9.5526149 1.129285.4637084 2.08032 1.181458 2.845355 2.1654516zm40.945432-11.4041204c-5.805852-5.0220285-13.209311-7.48256737-20.853019-6.92123615-10.051742.73549925-18.64095 6.60950875-23.178018 15.04389855-1.0141417-.2196513-2.0814265-.3405705-3.2184614-.3405705-3.4631401 0-6.3516735 1.0505547-8.6678146 3.1494453-2.316141 2.1-3.4731044 4.8844691-3.4731044 8.3545167 0 3.5576862 1.1414634 6.414263 3.423283 8.5686212 1.6164273 1.5242472 3.5594615 2.4993661 5.816924 2.9453249-.6742494.22187-1.334106.4858954-1.9618556.8386688-1.6994629.9496038-3.0224976 2.4050713-3.9702111 4.3675118-.9499278 1.9602219-1.4237846 4.0513471-1.4237846 6.2711569 0 3.3812996 1.0285349 6.100317 3.0844976 8.1570523 2.0570698 2.0534073 4.7075677 3.081775 7.9492794 3.081775 3.0656757 0 5.5855317-1.1160063 7.5606727-3.3469097.517035.6855785.876856 1.4754358 1.075035 2.3695721h.710785v-7.8730586h-.710785c-.13175 1.3045959-.56575 2.6546751-1.299785 4.0524564-.732928 1.3988907-1.727141 2.3895404-2.985962 2.9752774-1.256606.5868462-2.485534.8786053-3.6889969.8786053-2.2486054 0-4.1285325-.8985736-5.6397813-2.6935023s-2.2663196-4.3786054-2.2663196-7.7488114c0-3.5576863.6919637-6.2922346 2.074784-8.2058637 1.3850347-1.9103012 3.2516761-2.8665611 5.6010314-2.8665611 1.9197844 0 3.6413904.5912837 5.1703534 1.7749604 1.526748 1.1803487 2.537569 3.2870048 3.034676 6.3133122h.710785l-.198178-8.5198098h-.7285c-.098536 1.00729-.385285 1.9790808-.859142 2.9175911-.673142-.8397781-1.690606-1.6041204-3.052391-2.2952456-.487142-.2473851-1.000856-.433756-1.526748-.592393 2.001712-.4980983 3.721104-1.4288432 5.149317-2.8011094 2.244177-2.1543582 3.366819-4.9721078 3.366819-8.4532488 0-3.5909667-1.172464-6.4264659-3.515176-8.5031696-1.391677-1.2335974-2.991498-2.0911252-4.788389-2.5936608 4.444068-8.1237718 12.757597-13.7692552 22.474982-14.47813 7.449959-.54690966 14.662989 1.8503962 20.313841 6.7393027 5.650853 4.8955626 9.061958 11.7025357 9.60335 19.1651347.602285 8.2868463-2.465605 16.3473851-8.413172 22.1404121-.148357.1419968-.151678.3827258-.008857.5302694.14725.1475435.380857.1530903.530321.0077654 6.106995-5.9427892 9.255707-14.2307448 8.640136-22.7339144-.558-7.6622821-4.063211-14.6511886-9.862421-19.6754358z" fill="#fff" fill-rule="evenodd"/></svg>